<?xml version="1.0" encoding="UTF-8"?>
<!DOCTYPE svg PUBLIC "-//W3C//DTD SVG 1.1//EN" "http://www.w3.org/Graphics/SVG/1.1/DTD/svg11.dtd">
<!-- Creator: CorelDRAW -->
<svg xmlns="http://www.w3.org/2000/svg" xml:space="preserve" width="12.8in" height="2.21326in" version="1.1" shape-rendering="geometricPrecision" text-rendering="geometricPrecision" image-rendering="optimizeQuality" fill-rule="evenodd" clip-rule="evenodd"
viewBox="0 0 12800 2213.26"
 xmlns:xlink="http://www.w3.org/1999/xlink"
 xmlns:xodm="http://www.corel.com/coreldraw/odm/2003">
 <g id="Layer_x0020_1">
  <metadata id="CorelCorpID_0Corel-Layer"/>
  <g id="_1853616112976">
   <g>
    <polygon fill="gray" points="453.37,781.54 51.94,89.21 363.63,87.84 765.86,781.54 1046.85,781.54 1195.6,1036.48 913.69,1036.48 1376.35,1834.41 1219.77,2103.3 601.2,1036.48 "/>
    <polygon fill="gray" points="1200.6,781.54 1673.75,781.54 1926.88,344.98 667.92,344.98 520.03,90.04 2074.7,90.04 2388.26,88.2 2241.13,341.93 2239.41,344.98 2239.37,344.98 1986.24,781.54 1838.41,1036.48 1453.07,1701.05 1297.81,1429.91 1525.93,1036.48 1352.03,1036.48 "/>
   </g>
   <polygon fill="gray" fill-rule="nonzero" points="3727.72,354.28 3396.46,354.28 3396.46,2097.35 3096.75,2097.35 3096.75,354.28 2765.48,354.28 2765.48,88.75 3727.72,88.75 "/>
   <path id="_1" fill="gray" fill-rule="nonzero" d="M4700.91 2097.35l-281.31 0 0 -44.69c-70.55,10.08 -140.65,20.59 -211.2,30.67 -92.46,12.7 -162.13,19.28 -210.33,19.28 -92.02,-0.44 -138.02,-53.46 -138.46,-159.06l0 -467.97c0.44,-105.6 48.2,-158.62 143.72,-159.06l418.9 0 0 -297.08 -281.31 0 0 184.04 -265.54 0 0 -243.19c0.44,-105.6 48.2,-158.62 143.28,-159.06l523.19 0c105.6,0.44 158.62,53.46 159.06,159.06l0 1137.07zm-278.68 -233.98l0 -347.04 -281.31 0 0 357.55 281.31 -10.52z"/>
   <polygon id="_2" fill="gray" fill-rule="nonzero" points="5208.31,2097.35 4919.12,2097.35 4919.12,88.75 5208.31,88.75 "/>
   <path id="_3" fill="gray" fill-rule="nonzero" d="M6264.76 1938.29c-0.44,105.6 -53.46,158.62 -159.06,159.06l-520.55 0c-105.6,-0.44 -158.62,-53.46 -159.06,-159.06l0 -978.01c0.44,-105.6 53.46,-158.62 159.06,-159.06l520.55 0c105.6,0.44 158.62,53.46 159.06,159.06l0 477.61 -81.06 81.06 -476.3 0 0 362.81 276.05 0 0 -215.58 281.31 0 0 272.11zm-281.31 -610.81l0 -310.67 -276.05 0 0 310.67 276.05 0z"/>
   <path id="_4" fill="gray" fill-rule="nonzero" d="M7342.23 2097.35l-294.46 0 0 -1051.62 -276.05 6.57 0 1045.05 -294.46 0 0 -1296.13 294.46 0 0 48.64c68.35,-11.39 136.71,-22.35 204.19,-32.86 84.13,-14.02 153.36,-21.03 207.26,-21.03 106.04,0 159.06,53.02 159.06,159.06l0 1142.32z"/>
   <path id="_5" fill="gray" fill-rule="nonzero" d="M8112.98 2097.35l-329.94 0c-105.6,-0.44 -158.62,-53.46 -159.06,-159.06l0 -887.3 -139.34 0 0 -249.76 139.34 0 0 -352.29 291.83 0 0 352.29 189.29 0 0 249.76 -189.29 0 0 796.6 197.18 0 0 249.76z"/>
   <polygon id="_6" fill="gray" fill-rule="nonzero" points="9653.17,354.28 9132.62,354.28 9132.62,948.45 9576.93,948.45 9576.93,1208.72 9132.62,1208.72 9132.62,2097.35 8832.91,2097.35 8832.91,88.75 9653.17,88.75 "/>
   <polygon id="_7" fill="gray" fill-rule="nonzero" points="10105.37,2097.35 9816.17,2097.35 9816.17,88.75 10105.37,88.75 "/>
   <path id="_8" fill="gray" fill-rule="nonzero" d="M11177.59 1938.29c0,106.04 -53.46,159.06 -159.06,159.5l-536.33 0c-105.6,-0.44 -158.62,-53.46 -159.06,-159.5l0 -977.57c0.44,-106.04 53.46,-159.06 159.06,-159.06l536.33 0c105.6,0 159.06,53.02 159.06,159.06l0 977.57zm-286.57 -85l0 -807.12 -278.68 0 0 807.12 278.68 0z"/>
   <polygon id="_9" fill="gray" fill-rule="nonzero" points="12678.33,801.22 12399.66,2099.98 12142.01,2099.98 12000.04,1382.24 11858.07,2099.98 11603.05,2099.98 11324.37,801.22 11605.68,801.22 11747.65,1630.69 11889.62,801.22 12113.09,801.22 12255.06,1630.69 12397.03,801.22 "/>
  </g>
 </g>
</svg>
