<?xml version="1.0" encoding="UTF-8"?>
<!DOCTYPE svg PUBLIC "-//W3C//DTD SVG 1.1//EN" "http://www.w3.org/Graphics/SVG/1.1/DTD/svg11.dtd">
<!-- Creator: CorelDRAW -->
<svg xmlns="http://www.w3.org/2000/svg" xml:space="preserve" width="12.8in" height="5.00661in" version="1.1" shape-rendering="geometricPrecision" text-rendering="geometricPrecision" image-rendering="optimizeQuality" fill-rule="evenodd" clip-rule="evenodd"
viewBox="0 0 12800 5006.61"
 xmlns:xlink="http://www.w3.org/1999/xlink"
 xmlns:xodm="http://www.corel.com/coreldraw/odm/2003">
 <g id="Layer_x0020_1">
  <metadata id="CorelCorpID_0Corel-Layer"/>
  <g id="_1853262040384">
   <g>
    <polygon fill="#000066" points="968.86,1768.23 -0,97.3 752.26,93.99 1723.04,1768.23 2401.21,1768.23 2760.23,2383.54 2079.82,2383.54 3196.45,4309.33 2818.56,4958.3 1325.63,2383.54 "/>
    <polygon fill="#FF7A00" points="2772.29,1768.23 3914.23,1768.23 4525.16,714.61 1486.66,714.61 1129.73,99.3 4881.93,99.3 5638.69,94.87 5283.61,707.25 5279.44,714.61 5279.34,714.61 4668.42,1768.23 4311.65,2383.54 3381.63,3987.48 3006.89,3333.07 3557.46,2383.54 3137.76,2383.54 "/>
   </g>
   <polygon fill="#000066" fill-rule="nonzero" points="7358.86,353.8 6950.86,353.8 6950.86,2500.65 6581.72,2500.65 6581.72,353.8 6173.72,353.8 6173.72,26.76 7358.86,26.76 "/>
   <path id="_1" fill="#000066" fill-rule="nonzero" d="M8557.49 2500.65l-346.47 0 0 -55.05c-86.89,12.41 -173.24,25.37 -260.13,37.78 -113.87,15.65 -199.68,23.75 -259.05,23.75 -113.33,-0.54 -170,-65.84 -170.54,-195.91l0 -576.38c0.54,-130.06 59.37,-195.36 177.02,-195.9l515.93 0 0 -365.91 -346.47 0 0 226.67 -327.05 0 0 -299.52c0.54,-130.06 59.36,-195.36 176.48,-195.9l644.38 0c130.06,0.54 195.36,65.84 195.9,195.9l0 1400.47zm-343.24 -288.19l0 -427.43 -346.47 0 0 440.38 346.47 -12.95z"/>
   <polygon id="_2" fill="#000066" fill-rule="nonzero" points="9182.44,2500.65 8826.25,2500.65 8826.25,26.76 9182.44,26.76 "/>
   <path id="_3" fill="#000066" fill-rule="nonzero" d="M10483.61 2304.74c-0.54,130.06 -65.84,195.37 -195.91,195.91l-641.14 0c-130.06,-0.54 -195.37,-65.84 -195.91,-195.91l0 -1204.57c0.54,-130.06 65.84,-195.36 195.91,-195.9l641.14 0c130.06,0.54 195.37,65.84 195.91,195.9l0 588.25 -99.84 99.84 -586.63 0 0 446.85 340 0 0 -265.52 346.48 0 0 335.14zm-346.48 -752.31l0 -382.63 -340 0 0 382.63 340 0z"/>
   <path id="_4" fill="#000066" fill-rule="nonzero" d="M11810.69 2500.65l-362.67 0 0 -1295.23 -340 8.09 0 1287.14 -362.67 0 0 -1596.37 362.67 0 0 59.91c84.19,-14.04 168.38,-27.52 251.49,-40.48 103.62,-17.27 188.89,-25.91 255.27,-25.91 130.6,0 195.91,65.3 195.91,195.9l0 1406.95z"/>
   <path id="_5" fill="#000066" fill-rule="nonzero" d="M12759.99 2500.65l-406.38 0c-130.06,-0.54 -195.36,-65.84 -195.9,-195.91l0 -1092.85 -171.62 0 0 -307.62 171.62 0 0 -433.91 359.43 0 0 433.91 233.14 0 0 307.62 -233.14 0 0 981.14 242.86 0 0 307.62z"/>
   <polygon fill="#FF7A00" fill-rule="nonzero" points="6905.38,3166.59 6371.1,3166.59 6371.1,3776.42 6827.12,3776.42 6827.12,4043.56 6371.1,4043.56 6371.1,4955.61 6063.48,4955.61 6063.48,2894.05 6905.38,2894.05 "/>
   <polygon id="_1_0" fill="#FF7A00" fill-rule="nonzero" points="7369.5,4955.61 7072.68,4955.61 7072.68,2894.05 7369.5,2894.05 "/>
   <path id="_2_1" fill="#FF7A00" fill-rule="nonzero" d="M8469.98 4792.36c0,108.83 -54.87,163.25 -163.25,163.7l-550.46 0c-108.39,-0.45 -162.8,-54.86 -163.25,-163.7l0 -1003.35c0.45,-108.83 54.87,-163.25 163.25,-163.25l550.46 0c108.39,0 163.25,54.42 163.25,163.25l0 1003.35zm-294.12 -87.25l0 -828.4 -286.03 0 0 828.4 286.03 0z"/>
   <polygon id="_3_2" fill="#FF7A00" fill-rule="nonzero" points="10010.31,3625.31 9724.28,4958.31 9459.84,4958.31 9314.13,4221.65 9168.42,4958.31 8906.67,4958.31 8620.65,3625.31 8909.37,3625.31 9055.08,4476.65 9200.8,3625.31 9430.16,3625.31 9575.87,4476.65 9721.58,3625.31 "/>
  </g>
 </g>
</svg>
