<?xml version="1.0" encoding="UTF-8"?>
<!DOCTYPE svg PUBLIC "-//W3C//DTD SVG 1.1//EN" "http://www.w3.org/Graphics/SVG/1.1/DTD/svg11.dtd">
<!-- Creator: CorelDRAW -->
<svg xmlns="http://www.w3.org/2000/svg" xml:space="preserve" width="12.8in" height="2.21326in" version="1.1" shape-rendering="geometricPrecision" text-rendering="geometricPrecision" image-rendering="optimizeQuality" fill-rule="evenodd" clip-rule="evenodd"
viewBox="0 0 12800 2213.26"
 xmlns:xlink="http://www.w3.org/1999/xlink"
 xmlns:xodm="http://www.corel.com/coreldraw/odm/2003">
 <g id="Layer_x0020_1">
  <metadata id="CorelCorpID_0Corel-Layer"/>
  <g id="_1853857325376">
   <g>
    <polygon fill="#000066" points="577.77,823.86 182.11,141.48 489.32,140.13 885.77,823.86 1162.72,823.86 1309.34,1075.14 1031.47,1075.14 1487.48,1861.6 1333.16,2126.63 723.47,1075.14 "/>
    <polygon fill="#FF7A00" points="1314.26,823.86 1780.61,823.86 2030.11,393.57 789.24,393.57 643.47,142.29 2175.81,142.29 2484.85,140.48 2339.85,390.57 2338.15,393.57 2338.11,393.57 2088.61,823.86 1942.91,1075.14 1563.11,1730.16 1410.07,1462.91 1634.91,1075.14 1463.52,1075.14 "/>
   </g>
   <polygon fill="#000066" fill-rule="nonzero" points="3805.07,402.74 3478.57,402.74 3478.57,2120.76 3183.17,2120.76 3183.17,402.74 2856.67,402.74 2856.67,141.03 3805.07,141.03 "/>
   <path id="_1" fill="#000066" fill-rule="nonzero" d="M4764.28 2120.76l-277.27 0 0 -44.05c-69.53,9.93 -138.63,20.3 -208.17,30.23 -91.13,12.52 -159.8,19 -207.3,19 -90.69,-0.43 -136.04,-52.69 -136.47,-156.77l0 -461.25c0.43,-104.08 47.51,-156.34 141.66,-156.77l412.88 0 0 -292.81 -277.27 0 0 181.39 -261.72 0 0 -239.69c0.43,-104.08 47.51,-156.34 141.22,-156.77l515.67 0c104.08,0.43 156.34,52.69 156.77,156.77l0 1120.73zm-274.67 -230.62l0 -342.05 -277.27 0 0 352.41 277.27 -10.36z"/>
   <polygon id="_2" fill="#000066" fill-rule="nonzero" points="5264.4,2120.76 4979.36,2120.76 4979.36,141.03 5264.4,141.03 "/>
   <path id="_3" fill="#000066" fill-rule="nonzero" d="M6305.66 1963.99c-0.43,104.08 -52.69,156.34 -156.77,156.77l-513.07 0c-104.09,-0.43 -156.34,-52.69 -156.78,-156.77l0 -963.96c0.43,-104.08 52.69,-156.34 156.78,-156.77l513.07 0c104.08,0.43 156.34,52.69 156.77,156.77l0 470.75 -79.9 79.9 -469.45 0 0 357.6 272.09 0 0 -212.48 277.26 0 0 268.2zm-277.26 -602.04l0 -306.2 -272.09 0 0 306.2 272.09 0z"/>
   <path id="_4" fill="#000066" fill-rule="nonzero" d="M7367.65 2120.76l-290.22 0 0 -1036.51 -272.09 6.48 0 1030.04 -290.22 0 0 -1277.5 290.22 0 0 47.94c67.37,-11.23 134.75,-22.02 201.26,-32.39 82.92,-13.82 151.16,-20.73 204.28,-20.73 104.52,0 156.77,52.26 156.77,156.78l0 1125.91z"/>
   <path id="_5" fill="#000066" fill-rule="nonzero" d="M8127.33 2120.76l-325.2 0c-104.09,-0.43 -156.34,-52.69 -156.78,-156.77l0 -874.56 -137.33 0 0 -246.17 137.33 0 0 -347.23 287.63 0 0 347.23 186.57 0 0 246.17 -186.57 0 0 785.16 194.35 0 0 246.17z"/>
   <polygon id="_6" fill="#FF7A00" fill-rule="nonzero" points="9645.39,402.74 9132.31,402.74 9132.31,988.37 9570.24,988.37 9570.24,1244.91 9132.31,1244.91 9132.31,2120.76 8836.91,2120.76 8836.91,141.03 9645.39,141.03 "/>
   <polygon id="_7" fill="#FF7A00" fill-rule="nonzero" points="10091.09,2120.76 9806.05,2120.76 9806.05,141.03 10091.09,141.03 "/>
   <path id="_8" fill="#FF7A00" fill-rule="nonzero" d="M11147.9 1963.99c0,104.52 -52.69,156.77 -156.78,157.2l-528.62 0c-104.09,-0.43 -156.34,-52.69 -156.78,-157.2l0 -963.52c0.43,-104.52 52.69,-156.78 156.78,-156.78l528.62 0c104.08,0 156.78,52.26 156.78,156.78l0 963.52zm-282.45 -83.79l0 -795.52 -274.67 0 0 795.52 274.67 0z"/>
   <polygon id="_9" fill="#FF7A00" fill-rule="nonzero" points="12627.09,843.26 12352.41,2123.35 12098.46,2123.35 11958.54,1415.94 11818.61,2123.35 11567.25,2123.35 11292.58,843.26 11569.85,843.26 11709.78,1660.81 11849.7,843.26 12069.96,843.26 12209.89,1660.81 12349.82,843.26 "/>
  </g>
 </g>
</svg>
