<?xml version="1.0" encoding="UTF-8"?>
<!DOCTYPE svg PUBLIC "-//W3C//DTD SVG 1.1//EN" "http://www.w3.org/Graphics/SVG/1.1/DTD/svg11.dtd">
<!-- Creator: CorelDRAW -->
<svg xmlns="http://www.w3.org/2000/svg" xml:space="preserve" width="12.8in" height="5.00661in" version="1.1" shape-rendering="geometricPrecision" text-rendering="geometricPrecision" image-rendering="optimizeQuality" fill-rule="evenodd" clip-rule="evenodd"
viewBox="0 0 12800 5006.61"
 xmlns:xlink="http://www.w3.org/1999/xlink"
 xmlns:xodm="http://www.corel.com/coreldraw/odm/2003">
 <g id="Layer_x0020_1">
  <metadata id="CorelCorpID_0Corel-Layer"/>
  <g id="_1853612757504">
   <g>
    <polygon fill="gray" points="1010.5,1798.07 61.5,161.37 798.35,158.13 1749.24,1798.07 2413.51,1798.07 2765.17,2400.78 2098.7,2400.78 3192.46,4287.11 2822.3,4922.78 1359.97,2400.78 "/>
    <polygon fill="gray" points="2776.98,1798.07 3895.54,1798.07 4493.94,766.03 1517.7,766.03 1168.08,163.33 4843.41,163.33 5584.65,159 5236.85,758.83 5232.77,766.03 5232.68,766.03 4634.26,1798.07 4284.8,2400.78 3373.85,3971.85 3006.78,3330.85 3546.07,2400.78 3134.97,2400.78 "/>
   </g>
   <polygon fill="gray" fill-rule="nonzero" points="7269.58,412.63 6869.94,412.63 6869.94,2515.48 6508.37,2515.48 6508.37,412.63 6108.73,412.63 6108.73,92.29 7269.58,92.29 "/>
   <path id="_1" fill="gray" fill-rule="nonzero" d="M8443.65 2515.48l-339.37 0 0 -53.92c-85.11,12.16 -169.69,24.84 -254.8,37 -111.54,15.33 -195.59,23.26 -253.74,23.26 -111.01,-0.53 -166.52,-64.49 -167.05,-191.89l0 -564.56c0.53,-127.4 58.15,-191.36 173.39,-191.89l505.36 0 0 -358.41 -339.37 0 0 222.02 -320.34 0 0 -293.39c0.53,-127.4 58.15,-191.36 172.86,-191.89l631.17 0c127.4,0.53 191.36,64.49 191.89,191.89l0 1371.77zm-336.2 -282.28l0 -418.67 -339.37 0 0 431.35 339.37 -12.69z"/>
   <polygon id="_2" fill="gray" fill-rule="nonzero" points="9055.78,2515.48 8706.89,2515.48 8706.89,92.29 9055.78,92.29 "/>
   <path id="_3" fill="gray" fill-rule="nonzero" d="M10330.28 2323.59c-0.53,127.4 -64.49,191.36 -191.89,191.89l-628 0c-127.4,-0.53 -191.36,-64.49 -191.89,-191.89l0 -1179.88c0.53,-127.4 64.49,-191.36 191.89,-191.89l628 0c127.4,0.53 191.36,64.49 191.89,191.89l0 576.2 -97.8 97.79 -574.61 0 0 437.7 333.03 0 0 -260.08 339.37 0 0 328.27zm-339.37 -736.89l0 -374.79 -333.03 0 0 374.79 333.03 0z"/>
   <path id="_4" fill="gray" fill-rule="nonzero" d="M11630.16 2515.48l-355.23 0 0 -1268.69 -333.03 7.93 0 1260.76 -355.23 0 0 -1563.66 355.23 0 0 58.68c82.46,-13.74 164.93,-26.96 246.33,-39.65 101.5,-16.92 185.02,-25.37 250.04,-25.37 127.93,0 191.89,63.96 191.89,191.89l0 1378.11z"/>
   <path id="_5" fill="gray" fill-rule="nonzero" d="M12560 2515.48l-398.05 0c-127.4,-0.53 -191.36,-64.49 -191.89,-191.89l0 -1070.45 -168.1 0 0 -301.31 168.1 0 0 -425.01 352.06 0 0 425.01 228.36 0 0 301.31 -228.36 0 0 961.03 237.88 0 0 301.31z"/>
   <polygon fill="gray" fill-rule="nonzero" points="6825.39,3167.79 6302.06,3167.79 6302.06,3765.13 6748.74,3765.13 6748.74,4026.79 6302.06,4026.79 6302.06,4920.15 6000.75,4920.15 6000.75,2900.84 6825.39,2900.84 "/>
   <polygon id="_1_3" fill="gray" fill-rule="nonzero" points="7280,4920.15 6989.26,4920.15 6989.26,2900.84 7280,2900.84 "/>
   <path id="_2_4" fill="gray" fill-rule="nonzero" d="M8357.93 4760.24c0,106.6 -53.74,159.9 -159.91,160.34l-539.19 0c-106.17,-0.44 -159.46,-53.74 -159.91,-160.34l0 -982.78c0.44,-106.6 53.74,-159.91 159.91,-159.91l539.19 0c106.16,0 159.91,53.3 159.91,159.91l0 982.78zm-288.1 -85.46l0 -811.43 -280.16 0 0 811.43 280.16 0z"/>
   <polygon id="_3_5" fill="gray" fill-rule="nonzero" points="9866.68,3617.11 9586.51,4922.79 9327.49,4922.79 9184.77,4201.23 9042.04,4922.79 8785.67,4922.79 8505.5,3617.11 8788.31,3617.11 8931.03,4451 9073.76,3617.11 9298.42,3617.11 9441.14,4451 9583.87,3617.11 "/>
  </g>
 </g>
</svg>
